Coordinates
version=1
nRows=10
nColumns=46
inDegrees=yes

Units are S.I. units (second, meters, Newtons, ...)
Angles are in degrees.

endheader
time	pelvis_tilt	pelvis_list	pelvis_rotation	pelvis_tx	pelvis_ty	pelvis_tz	bb_angle	bb_tx	bb_ty	bb_tz	hip_flexion_r	hip_adduction_r	hip_rotation_r	knee_angle_r	knee_angle_r_beta	ankle_angle_r	subtalar_angle_r	mtp_angle_r	crank_angle_r	hip_flexion_l	hip_adduction_l	hip_rotation_l	knee_angle_l	knee_angle_l_beta	ankle_angle_l	subtalar_angle_l	mtp_angle_l	crank_angle_l	lumbar_extension	lumbar_bending	lumbar_rotation	arm_flex_r	arm_add_r	arm_rot_r	elbow_flex_r	pro_sup_r	wrist_flex_r	wrist_dev_r	arm_flex_l	arm_add_l	arm_rot_l	elbow_flex_l	pro_sup_l	wrist_flex_l	wrist_dev_l
      2.50000000	    -26.11231950	     -1.47341619	    -15.47433782	      0.39579331	      1.20942557	     -0.27012513	      0.00000000	      0.50000000	      0.00000000	      0.25000000	     67.01308911	      9.45037904	      4.29670996	     73.86833002	      1.28924557	     11.32138072	     -5.89650914	      0.00000000	      0.00000000	     36.76864590	    -15.63328042	     -8.69002526	     52.08979500	      0.90913843	    -29.06060738	     -1.61545165	      0.00000000	      0.00000000	    -65.41527464	     -5.67346212	     10.89157861	     52.50634770	    -33.27693732	     33.62516624	     99.12001565	     50.70342291	      0.00000000	      0.00000000	     41.18888149	    -17.96382334	     12.24218780	     82.17470918	     51.84677191	      0.00000000	      0.00000000
      2.50500000	    -26.06226857	     -0.61053691	    -14.92043676	      0.39503640	      1.20792681	     -0.26959376	      0.00000000	      0.50000000	      0.00000000	      0.25000000	     66.29360892	      8.62476768	      4.93626512	     71.95370468	      1.25582906	     10.49118544	     -6.15144051	      0.00000000	      0.00000000	     38.07852850	    -14.85421900	     -8.38589774	     54.66392620	      0.95406549	    -28.24472299	     -1.68466762	      0.00000000	      0.00000000	    -65.19978695	     -6.00673214	     11.24587727	     50.34446461	    -34.08128035	     31.03388950	    100.72758383	     50.63806097	      0.00000000	      0.00000000	     42.56610985	    -17.53461856	     14.23131097	     81.08285698	     51.98147916	      0.00000000	      0.00000000
      2.51000000	    -25.99004519	      0.17810896	    -14.35972369	      0.39434057	      1.20653867	     -0.26920719	      0.00000000	      0.50000000	      0.00000000	      0.25000000	     65.53736094	      7.70946671	      5.38571559	     70.03914447	      1.22241368	      9.45307862	     -6.04430917	      0.00000000	      0.00000000	     39.26804636	    -14.14005536	     -8.21357224	     57.09758333	      0.99654082	    -27.30064881	     -1.78346793	      0.00000000	      0.00000000	    -65.06857865	     -6.16223992	     10.59064927	     49.85827423	    -34.15617493	     30.59375479	    101.02094227	     50.62853556	      0.00000000	      0.00000000	     42.89829749	    -17.55355459	     14.60237721	     80.90915025	     52.01310285	      0.00000000	      0.00000000
      2.51500000	    -25.73337561	      0.99530249	    -13.86283879	      0.39375071	      1.20515388	     -0.26863092	      0.00000000	      0.50000000	      0.00000000	      0.25000000	     64.60981425	      6.81974386	      5.91235873	     68.25095327	      1.19120385	      8.57613648	     -5.93417740	      0.00000000	      0.00000000	     40.19022143	    -13.42321825	     -8.23455156	     59.48925956	      1.03828345	    -26.28059627	     -2.10537059	      0.00000000	      0.00000000	    -65.09963068	     -6.42006820	      9.89822103	     49.48718867	    -34.19718361	     30.34118075	    101.15232095	     50.62298355	      0.00000000	      0.00000000	     43.22308175	    -17.55843378	     14.83859769	     80.85981633	     52.03464433	      0.00000000	      0.00000000
      2.52000000	    -25.53756259	      1.75949490	    -13.28831977	      0.39313693	      1.20346485	     -0.26831231	      0.00000000	      0.50000000	      0.00000000	      0.25000000	     63.73029208	      5.90008261	      6.38582216	     66.48861399	      1.16044523	      7.45535239	     -5.83961706	      0.00000000	      0.00000000	     41.20758347	    -12.71733381	     -8.18890526	     61.90377585	      1.08042471	    -25.14087929	     -2.39151834	      0.00000000	      0.00000000	    -65.03659126	     -6.53189194	      9.21700350	     49.08465183	    -34.17436380	     30.01566346	    101.30885668	     50.61528366	      0.00000000	      0.00000000	     43.51459540	    -17.64741330	     15.14676634	     80.80574929	     52.06293545	      0.00000000	      0.00000000
      2.52500000	    -25.65131231	      2.30623993	    -12.40736875	      0.39231271	      1.20104892	     -0.26828001	      0.00000000	      0.50000000	      0.00000000	      0.25000000	     63.11154466	      4.95664265	      6.55253385	     64.73440776	      1.12982855	      6.14218548	     -6.40550548	      0.00000000	      0.00000000	     42.72064752	    -12.09681399	     -7.72911697	     64.47357316	      1.12527613	    -23.91317771	     -2.34999456	      0.00000000	      0.00000000	    -64.66637749	     -6.29732905	      8.66368292	     48.32349679	    -33.92398716	     29.20471516	    101.66503649	     50.58774043	      0.00000000	      0.00000000	     43.80041409	    -18.00447158	     16.21092636	     80.71136132	     52.17715683	      0.00000000	      0.00000000
      2.53000000	    -25.78290375	      2.63824021	    -11.78902386	      0.39152200	      1.19847373	     -0.26755681	      0.00000000	      0.50000000	      0.00000000	      0.25000000	     62.40292664	      4.42684445	      6.68020523	     62.88616488	      1.09757063	      4.58278913	     -7.10572026	      0.00000000	      0.00000000	     44.18283141	    -11.92254110	     -7.42634089	     67.07978735	      1.17076315	    -22.63318151	     -2.44012119	      0.00000000	      0.00000000	    -64.28330247	     -6.36207424	      8.98447854	     46.55265370	    -34.06986722	     27.19163320	    102.43461039	     50.49387108	      0.00000000	      0.00000000	     44.59235921	    -18.47029344	     18.53631159	     80.38512300	     52.41157219	      0.00000000	      0.00000000
      2.53500000	    -25.77309853	      3.01859271	    -11.09325596	      0.39092997	      1.19610739	     -0.26718059	      0.00000000	      0.50000000	      0.00000000	      0.25000000	     61.50602263	      3.68936577	      6.73382285	     61.03622860	      1.06528315	      3.12899705	     -7.71536655	      0.00000000	      0.00000000	     45.45521700	    -11.56189963	     -7.12555232	     69.55428809	      1.21395134	    -21.36856397	     -2.65559649	      0.00000000	      0.00000000	    -64.01997247	     -6.31420434	      8.98954362	     45.26429108	    -34.37750724	     25.95098176	    103.12118963	     50.46258565	      0.00000000	      0.00000000	     45.30645526	    -18.30211938	     19.74155436	     79.74968187	     52.46494646	      0.00000000	      0.00000000
      2.54000000	    -25.46833563	      3.62542839	    -10.46155309	      0.39074968	      1.19411940	     -0.26676307	      0.00000000	      0.50000000	      0.00000000	      0.25000000	     60.26298015	      2.87274050	      7.25795715	     59.24638220	      1.03404444	      1.95254725	     -7.58271774	      0.00000000	      0.00000000	     46.32148530	    -10.99965873	     -7.14307131	     71.88900461	      1.25469983	    -20.18250754	     -3.17948324	      0.00000000	      0.00000000	    -64.03302202	     -6.45167570	      8.40586684	     44.71656636	    -34.48525710	     25.80791449	    103.14768335	     50.45719758	      0.00000000	      0.00000000	     45.48269506	    -18.42426033	     19.74023745	     79.69067795	     52.45715357	      0.00000000	      0.00000000
      2.54500000	    -25.44990030	      3.73054866	     -9.54958326	      0.39012364	      1.19125982	     -0.26674428	      0.00000000	      0.50000000	      0.00000000	      0.25000000	     59.20729148	      2.13180237	      6.97181353	     57.41958767	      1.00216086	      0.43910365	     -8.56894605	      0.00000000	      0.00000000	     47.77798170	    -10.70620735	     -6.47451133	     74.58422377	      1.30174027	    -18.72406963	     -3.28405753	      0.00000000	      0.00000000	    -63.74307589	     -5.95365359	      8.04099818	     43.90606868	    -34.14993432	     24.98728045	    103.41206141	     50.41402596	      0.00000000	      0.00000000	     45.68832675	    -18.65074185	     20.67671214	     79.65611281	     52.56519913	      0.00000000	      0.00000000
